<?xml version="1.0" encoding="UTF-8"?>
<svg version="1.1" xmlns="http://www.w3.org/2000/svg" width="128" height="128">
<path d="M0 0 C1.29373283 -0.01248528 1.29373283 -0.01248528 2.61360168 -0.02522278 C5.46030215 -0.04928386 8.30677313 -0.05809135 11.15356445 -0.06469727 C13.1402849 -0.07366849 15.12700466 -0.08279042 17.11372375 -0.09205627 C21.27895751 -0.10853962 25.44411097 -0.11624486 29.609375 -0.11914062 C34.92773065 -0.12451526 40.24532347 -0.16216037 45.56346416 -0.20788479 C49.66863201 -0.23773994 53.77361833 -0.24486606 57.87888527 -0.24586678 C59.83837174 -0.25005441 61.79785949 -0.26242972 63.75723839 -0.28338432 C84.17756944 -0.48433742 84.17756944 -0.48433742 91.3293457 5.30639648 C97.55776892 11.97925621 99.62823468 17.85201701 99.63574219 26.97705078 C99.6440657 27.83953934 99.65238922 28.70202789 99.66096497 29.59065247 C99.68502604 32.43735293 99.69383354 35.28382391 99.70043945 38.13061523 C99.70941068 40.11733568 99.71853261 42.10405545 99.72779846 44.09077454 C99.74428181 48.25600829 99.75198705 52.42116175 99.75488281 56.58642578 C99.76025745 61.90478143 99.79790256 67.22237425 99.84362698 72.54051495 C99.87348213 76.6456828 99.88060825 80.75066911 99.88160896 84.85593605 C99.88579659 86.81542252 99.89817191 88.77491027 99.91912651 90.73428917 C100.12007961 111.15462022 100.12007961 111.15462022 94.3293457 118.30639648 C87.65648598 124.5348197 81.78372518 126.60528546 72.65869141 126.61279297 C71.36495857 126.62527824 71.36495857 126.62527824 70.04508972 126.63801575 C67.19838926 126.66207682 64.35191828 126.67088432 61.50512695 126.67749023 C59.51840651 126.68646146 57.53168674 126.69558339 55.54496765 126.70484924 C51.3797339 126.72133259 47.21458044 126.72903783 43.04931641 126.73193359 C37.73096076 126.73730823 32.41336794 126.77495334 27.09522724 126.82067776 C22.99005939 126.85053291 18.88507308 126.85765903 14.77980614 126.85865974 C12.82031966 126.86284737 10.86083192 126.87522269 8.90145302 126.89617729 C-11.51887804 127.09713039 -11.51887804 127.09713039 -18.6706543 121.30639648 C-24.89907751 114.63353676 -26.96954327 108.76077596 -26.97705078 99.63574219 C-26.9853743 98.77325363 -26.99369781 97.91076508 -27.00227356 97.0221405 C-27.02633464 94.17544004 -27.03514213 91.32896906 -27.04174805 88.48217773 C-27.05071927 86.49545729 -27.05984121 84.50873752 -27.06910706 82.52201843 C-27.08559041 78.35678468 -27.09329564 74.19163122 -27.09619141 70.02636719 C-27.10156604 64.70801154 -27.13921115 59.39041872 -27.18493557 54.07227802 C-27.21479072 49.96711017 -27.22191685 45.86212386 -27.22291756 41.75685692 C-27.22710519 39.79737045 -27.2394805 37.8378827 -27.2604351 35.8785038 C-27.46138821 15.45817275 -27.46138821 15.45817275 -21.6706543 8.30639648 C-14.99779458 2.07797327 -9.12503377 0.00750751 0 0 Z " fill="#3B73E7" transform="translate(27.670654296875,0.693603515625)"/>
<path d="M0 0 C5.94 0 11.88 0 18 0 C18.020625 2.59875 18.04125 5.1975 18.0625 7.875 C18.071604 8.69210449 18.08070801 9.50920898 18.09008789 10.35107422 C18.11111111 15.77777778 18.11111111 15.77777778 17 18 C17.77601562 17.97905273 18.55203125 17.95810547 19.3515625 17.93652344 C22.90090748 17.85287241 26.45004435 17.80118371 30 17.75 C31.22074219 17.71648438 32.44148438 17.68296875 33.69921875 17.6484375 C40.9864631 17.56965648 45.80477631 18.06603296 52 22 C52.8301738 70.56871492 52.8301738 70.56871492 43 83 C37.61912786 88.0461367 32.14926831 87.50624123 25.1875 87.3125 C24.12595703 87.30283203 23.06441406 87.29316406 21.97070312 87.28320312 C14.16838981 87.16838981 14.16838981 87.16838981 13 86 C12.76304852 83.30577395 12.57831398 80.63665389 12.4375 77.9375 C12.293125 75.318125 12.14875 72.69875 12 70 C17.61 70 23.22 70 29 70 C31.40494954 64.38845106 32.43113426 61.50217707 32.94921875 55.75390625 C33.01156204 55.09792953 33.07390533 54.44195282 33.13813782 53.76609802 C33.33210917 51.69905948 33.51007436 49.63101746 33.6875 47.5625 C33.81729721 46.1489906 33.94814722 44.73557747 34.08007812 43.32226562 C34.40085239 39.8825164 34.69987488 36.44186043 35 33 C28.73 33.33 22.46 33.66 16 34 C15.505 36.805 15.01 39.61 14.5 42.5 C10.59119528 62.11004501 0.16418645 76.17850624 -15 89 C-18.76382277 87.31906944 -21.96765656 84.95783133 -25.25 82.5 C-26.08144531 81.89478516 -26.08144531 81.89478516 -26.9296875 81.27734375 C-28.32569165 80.23549829 -29.66802392 79.12254588 -31 78 C-31 77.34 -31 76.68 -31 76 C-29.35510438 74.87266647 -27.65637008 73.82346397 -25.9375 72.8125 C-15.14759242 66.08955758 -8.23752892 57.07695741 -4 45 C-3.34 41.37 -2.68 37.74 -2 34 C-10.25 34 -18.5 34 -27 34 C-27 28.72 -27 23.44 -27 18 C-18.09 18 -9.18 18 0 18 C0 12.06 0 6.12 0 0 Z " fill="#FAFBFE" transform="translate(53,20)"/>
</svg>
